<svg width="106" height="109" viewBox="0 0 106 109" fill="none" xmlns="http://www.w3.org/2000/svg">
<path d="M13.25 0.791504C11.5075 0.791504 10.0324 1.80941 9.31641 3.27588C6.2972 3.84522 0 5.57048 0 10.453C0 13.1789 6.17643 53.688 22.1523 63.384C22.1437 63.5651 22.0833 63.7463 22.0833 63.936C22.0833 68.9307 25.439 78.0832 30.9167 78.0832C36.3944 78.0832 39.75 68.9307 39.75 63.936C39.75 63.7463 39.6896 63.5651 39.681 63.384C55.6569 53.688 61.8333 13.1789 61.8333 10.453C61.8333 5.57048 55.5361 3.84522 52.5169 3.27588C51.8009 1.80941 50.3258 0.791504 48.5833 0.791504C46.1421 0.791504 44.1667 2.76693 44.1667 5.20817C44.1667 7.64942 46.1421 9.62484 48.5833 9.62484C50.0757 9.62484 51.3696 8.8916 52.1719 7.76156C54.8201 8.38265 57.4167 9.50407 57.4167 10.453C57.4167 14.4038 50.6105 50.8327 37.8177 59.3123C36.3857 58.2341 34.6001 58.2082 33.7461 58.2082C33.3148 58.2082 32.8403 58.1909 32.3659 58.2082C31.4342 58.2427 30.3991 58.2427 29.4674 58.2082C28.993 58.1909 28.5186 58.2082 28.0872 58.2082C27.2332 58.2082 25.439 58.2341 24.0156 59.3123C11.2228 50.8413 4.41667 14.4038 4.41667 10.453C4.41667 9.55583 6.83203 8.41716 9.66146 7.76156C10.4637 8.8916 11.7576 9.62484 13.25 9.62484C15.6912 9.62484 17.6667 7.64942 17.6667 5.20817C17.6667 2.76693 15.6912 0.791504 13.25 0.791504ZM90.5417 51.5832C82.0189 51.5832 75.0833 58.5187 75.0833 67.0415C75.0833 75.5643 82.0189 82.4998 90.5417 82.4998C99.0645 82.4998 106 75.5643 106 67.0415C106 58.5187 99.0645 51.5832 90.5417 51.5832ZM90.5417 60.4165C94.1906 60.4165 97.1667 63.3926 97.1667 67.0415C97.1667 70.6904 94.1906 73.6665 90.5417 73.6665C86.8927 73.6665 83.9167 70.6904 83.9167 67.0415C83.9167 63.3926 86.8927 60.4165 90.5417 60.4165ZM33.401 82.1548C32.6074 82.3791 31.7965 82.4998 30.9167 82.4998C30.2266 82.4998 29.5537 82.4308 28.9154 82.2928C29.8556 93.1102 34.8934 109 61.8333 109C83.6579 109 90.1104 95.422 91.9909 86.8475C91.5251 86.882 91.0247 86.9165 90.5417 86.9165C89.5151 86.9165 88.549 86.7871 87.5742 86.6405C85.7886 94.0246 80.0262 104.583 61.8333 104.583C40.2676 104.583 34.6001 94.0591 33.401 82.1548Z" fill="#2EBBBC"/>
</svg>
