<svg width="24" height="23" viewBox="0 0 24 23" fill="none" xmlns="http://www.w3.org/2000/svg">
<path d="M12 0.919922C5.90434 0.919922 0.959961 5.23992 0.959961 10.5199C0.959961 13.4955 2.54434 16.3287 5.27996 18.1043C5.23121 18.6312 4.94434 19.8312 3.93559 21.2712L3.40871 22.0399H4.36871C6.95996 22.0399 8.73559 20.4555 9.31121 19.8312C10.1756 20.0243 11.0887 20.1199 12 20.1199C18.0956 20.1199 23.04 15.7999 23.04 10.5199C23.04 5.23992 18.0956 0.919922 12 0.919922ZM7.19996 11.4799C6.67121 11.4799 6.23996 11.0487 6.23996 10.5199C6.23996 9.99117 6.67121 9.55992 7.19996 9.55992C7.72871 9.55992 8.15996 9.99117 8.15996 10.5199C8.15996 11.0487 7.72871 11.4799 7.19996 11.4799ZM12 11.4799C11.4712 11.4799 11.04 11.0487 11.04 10.5199C11.04 9.99117 11.4712 9.55992 12 9.55992C12.5287 9.55992 12.96 9.99117 12.96 10.5199C12.96 11.0487 12.5287 11.4799 12 11.4799ZM16.8 11.4799C16.2712 11.4799 15.84 11.0487 15.84 10.5199C15.84 9.99117 16.2712 9.55992 16.8 9.55992C17.3287 9.55992 17.76 9.99117 17.76 10.5199C17.76 11.0487 17.3287 11.4799 16.8 11.4799Z" fill="white"/>
</svg>
