<svg width="24" height="24" viewBox="0 0 24 24" fill="none" xmlns="http://www.w3.org/2000/svg">
<path fill-rule="evenodd" clip-rule="evenodd" d="M12 22.8C17.9646 22.8 22.8 17.9646 22.8 12C22.8 6.03539 17.9646 1.2 12 1.2C6.0354 1.2 1.2 6.03539 1.2 12C1.2 17.9646 6.0354 22.8 12 22.8ZM12 24C18.6276 24 24 18.6276 24 12C24 5.37239 18.6276 0 12 0C5.3724 0 0 5.37239 0 12C0 18.6276 5.3724 24 12 24Z" fill="white"/>
<path d="M4.7998 18.978C4.7998 18.3582 5.263 17.8344 5.8798 17.766C10.5088 17.2536 13.5118 17.2998 18.1306 17.7774C18.3612 17.8016 18.5799 17.8925 18.7597 18.0389C18.9396 18.1853 19.0729 18.3809 19.1434 18.6019C19.2139 18.8228 19.2185 19.0595 19.1567 19.283C19.0949 19.5066 18.9694 19.7073 18.7954 19.8606C13.3444 24.612 10.2292 24.5466 5.1838 19.8654C4.9378 19.6374 4.7998 19.3134 4.7998 18.9786V18.978Z" fill="white"/>
<path fill-rule="evenodd" clip-rule="evenodd" d="M18.0692 18.3735C13.487 17.8995 10.5272 17.8551 5.9456 18.3621C5.79478 18.3797 5.65575 18.4523 5.55512 18.566C5.45449 18.6797 5.39933 18.8265 5.4002 18.9783C5.4002 19.1499 5.4716 19.3125 5.5922 19.4253C8.093 21.7449 9.9878 22.7931 11.84 22.7997C13.6988 22.8063 15.6956 21.7665 18.4016 19.4085C18.4876 19.332 18.5495 19.2322 18.5797 19.1211C18.61 19.0101 18.6074 18.8927 18.5722 18.7831C18.537 18.6735 18.4707 18.5765 18.3814 18.5039C18.2921 18.4313 18.1836 18.3862 18.0692 18.3741V18.3735ZM5.8142 17.1693C10.4918 16.6515 13.5386 16.6983 18.1934 17.1801C18.5404 17.2163 18.8693 17.3529 19.1398 17.5732C19.4104 17.7935 19.6108 18.0878 19.7166 18.4202C19.8225 18.7527 19.8291 19.1087 19.7356 19.4449C19.6422 19.781 19.4528 20.0826 19.1906 20.3127C16.4456 22.7055 14.1596 24.0087 11.8364 23.9997C9.5066 23.9913 7.3214 22.6659 4.7768 20.3049C4.59461 20.1352 4.44937 19.9298 4.35016 19.7014C4.25095 19.4731 4.1999 19.2267 4.2002 18.9777C4.19932 18.5304 4.36352 18.0984 4.66134 17.7646C4.95915 17.4308 5.36965 17.2187 5.8142 17.1687V17.1693Z" fill="white"/>
<path d="M16.8002 9.60004C16.8002 10.8731 16.2945 12.094 15.3943 12.9941C14.4941 13.8943 13.2732 14.4 12.0002 14.4C10.7272 14.4 9.50626 13.8943 8.60608 12.9941C7.70591 12.094 7.2002 10.8731 7.2002 9.60004C7.2002 8.327 7.70591 7.10611 8.60608 6.20593C9.50626 5.30576 10.7272 4.80005 12.0002 4.80005C13.2732 4.80005 14.4941 5.30576 15.3943 6.20593C16.2945 7.10611 16.8002 8.327 16.8002 9.60004Z" fill="white"/>
<path fill-rule="evenodd" clip-rule="evenodd" d="M12.0002 13.2C12.955 13.2 13.8706 12.8207 14.5458 12.1456C15.2209 11.4705 15.6002 10.5548 15.6002 9.60004C15.6002 8.64526 15.2209 7.72959 14.5458 7.05446C13.8706 6.37933 12.955 6.00005 12.0002 6.00005C11.0454 6.00005 10.1297 6.37933 9.45461 7.05446C8.77948 7.72959 8.4002 8.64526 8.4002 9.60004C8.4002 10.5548 8.77948 11.4705 9.45461 12.1456C10.1297 12.8207 11.0454 13.2 12.0002 13.2ZM12.0002 14.4C13.2732 14.4 14.4941 13.8943 15.3943 12.9941C16.2945 12.094 16.8002 10.8731 16.8002 9.60004C16.8002 8.327 16.2945 7.10611 15.3943 6.20593C14.4941 5.30576 13.2732 4.80005 12.0002 4.80005C10.7272 4.80005 9.50626 5.30576 8.60608 6.20593C7.70591 7.10611 7.2002 8.327 7.2002 9.60004C7.2002 10.8731 7.70591 12.094 8.60608 12.9941C9.50626 13.8943 10.7272 14.4 12.0002 14.4Z" fill="white"/>
</svg>
