<svg width="178" height="78" viewBox="0 0 178 78" fill="none" xmlns="http://www.w3.org/2000/svg">
<path d="M24.9 73.7C24.9 73.5 24.8667 73.1667 24.8 72.7C24.8 72.2333 24.7667 71.7667 24.7 71.3C24.7 70.7667 24.6667 70.2667 24.6 69.8C24.5333 69.3333 24.5 69 24.5 68.8C24.1 64.3333 23.9 59.8667 23.9 55.4C23.9 50.9333 23.9 46.5 23.9 42.1C23.9667 37.6333 23.9667 33.2 23.9 28.8C23.9 24.4 23.7 19.9667 23.3 15.5C23.1667 15.5 22.6 15.5667 21.6 15.7C20.6667 15.7667 19.6333 15.8667 18.5 16C17.4333 16.0667 16.4 16.1667 15.4 16.3C14.4667 16.3667 13.9 16.4 13.7 16.4C12.3 16.6667 11.2 17 10.4 17.4C9.66667 17.7333 8.96667 18.1 8.3 18.5C7.63333 18.8333 6.9 19.1333 6.1 19.4C5.36667 19.6 4.26667 19.7 2.8 19.7C2.6 19.7 2.26667 19.3667 1.8 18.7C1.4 18.0333 1.13333 17.7 1 17.7C0.466667 14.2333 1.03333 11.4333 2.7 9.3C4.36667 7.16667 6.6 5.53333 9.4 4.4C12.2 3.26666 15.3 2.5 18.7 2.1C22.1 1.7 25.3 1.46666 28.3 1.39999C29.1667 1.26666 30.6 1.16666 32.6 1.1C34.6 1.03333 36.7333 0.966664 39 0.899994C41.2667 0.833329 43.3667 0.799996 45.3 0.799996C47.3 0.73333 48.6667 0.699997 49.4 0.699997C49.5333 0.699997 49.9333 0.699997 50.6 0.699997C51.3333 0.633331 52.1667 0.599998 53.1 0.599998C54.0333 0.599998 54.9333 0.599998 55.8 0.599998C56.7333 0.599998 57.4667 0.599998 58 0.599998C58.3333 0.599998 58.9 0.599998 59.7 0.599998C60.5667 0.599998 61.4333 0.599998 62.3 0.599998C63.2333 0.599998 64.1 0.633331 64.9 0.699997C65.7 0.699997 66.2667 0.699997 66.6 0.699997C66.8667 0.633331 67.3333 0.733332 68 0.999999C68.7333 1.2 69.2 1.36666 69.4 1.5C69.4667 1.5 69.5 1.63333 69.5 1.9C69.5 2.1 69.5 2.26666 69.5 2.4C69.6333 4.2 69.0667 5.69999 67.8 6.89999C66.5333 8.03333 65 8.93333 63.2 9.6C61.4 10.2 59.5333 10.6333 57.6 10.9C55.7333 11.1667 54.2333 11.3333 53.1 11.4C52.6333 11.4667 51.8333 11.5667 50.7 11.7C49.6333 11.7667 48.4667 11.8667 47.2 12C46 12.0667 44.8333 12.1667 43.7 12.3C42.6333 12.3667 41.9 12.4 41.5 12.4L39.6 13.3C39.5333 13.3 39.4667 13.8 39.4 14.8C39.4 15.7333 39.3333 17 39.2 18.6C39.1333 20.1333 39.0667 21.9 39 23.9C38.9333 25.8333 38.8333 27.8 38.7 29.8C38.6333 31.8 38.5667 33.7333 38.5 35.6C38.4333 37.4667 38.3667 39.0667 38.3 40.4C38.3 40.7333 38.3 41.4667 38.3 42.6C38.3 43.6667 38.3 44.9667 38.3 46.5C38.3 47.9667 38.3 49.5333 38.3 51.2C38.3667 52.8667 38.4 54.4667 38.4 56C38.4 57.4667 38.4 58.7667 38.4 59.9C38.4 61.0333 38.4 61.7667 38.4 62.1C38.4 63.8333 38.1667 65.5333 37.7 67.2C37.3 68.8 36.6333 70.2333 35.7 71.5C34.8333 72.7667 33.7 73.7667 32.3 74.5C30.9 75.2333 29.2 75.6 27.2 75.6C26.6667 75.6 26.1333 75.5333 25.6 75.4C25.0667 75.2667 24.8333 74.7 24.9 73.7ZM92.7711 73.7C92.7711 73.5 92.7378 73.1667 92.6711 72.7C92.6711 72.2333 92.6378 71.7667 92.5711 71.3C92.5711 70.7667 92.5378 70.2667 92.4711 69.8C92.4044 69.3333 92.3711 69 92.3711 68.8C91.9711 64.3333 91.7711 59.8667 91.7711 55.4C91.7711 50.9333 91.7711 46.5 91.7711 42.1C91.8378 37.6333 91.8378 33.2 91.7711 28.8C91.7711 24.4 91.5711 19.9667 91.1711 15.5C91.0378 15.5 90.4711 15.5667 89.4711 15.7C88.5378 15.7667 87.5044 15.8667 86.3711 16C85.3044 16.0667 84.2711 16.1667 83.2711 16.3C82.3378 16.3667 81.7711 16.4 81.5711 16.4C80.1711 16.6667 79.0711 17 78.2711 17.4C77.5378 17.7333 76.8378 18.1 76.1711 18.5C75.5044 18.8333 74.7711 19.1333 73.9711 19.4C73.2378 19.6 72.1378 19.7 70.6711 19.7C70.4711 19.7 70.1378 19.3667 69.6711 18.7C69.2711 18.0333 69.0044 17.7 68.8711 17.7C68.3378 14.2333 68.9044 11.4333 70.5711 9.3C72.2378 7.16667 74.4711 5.53333 77.2711 4.4C80.0711 3.26666 83.1711 2.5 86.5711 2.1C89.9711 1.7 93.1711 1.46666 96.1711 1.39999C97.0378 1.26666 98.4711 1.16666 100.471 1.1C102.471 1.03333 104.604 0.966664 106.871 0.899994C109.138 0.833329 111.238 0.799996 113.171 0.799996C115.171 0.73333 116.538 0.699997 117.271 0.699997C117.404 0.699997 117.804 0.699997 118.471 0.699997C119.204 0.633331 120.038 0.599998 120.971 0.599998C121.904 0.599998 122.804 0.599998 123.671 0.599998C124.604 0.599998 125.338 0.599998 125.871 0.599998C126.204 0.599998 126.771 0.599998 127.571 0.599998C128.438 0.599998 129.304 0.599998 130.171 0.599998C131.104 0.599998 131.971 0.633331 132.771 0.699997C133.571 0.699997 134.138 0.699997 134.471 0.699997C134.738 0.633331 135.204 0.733332 135.871 0.999999C136.604 1.2 137.071 1.36666 137.271 1.5C137.338 1.5 137.371 1.63333 137.371 1.9C137.371 2.1 137.371 2.26666 137.371 2.4C137.504 4.2 136.938 5.69999 135.671 6.89999C134.404 8.03333 132.871 8.93333 131.071 9.6C129.271 10.2 127.404 10.6333 125.471 10.9C123.604 11.1667 122.104 11.3333 120.971 11.4C120.504 11.4667 119.704 11.5667 118.571 11.7C117.504 11.7667 116.338 11.8667 115.071 12C113.871 12.0667 112.704 12.1667 111.571 12.3C110.504 12.3667 109.771 12.4 109.371 12.4L107.471 13.3C107.404 13.3 107.338 13.8 107.271 14.8C107.271 15.7333 107.204 17 107.071 18.6C107.004 20.1333 106.938 21.9 106.871 23.9C106.804 25.8333 106.704 27.8 106.571 29.8C106.504 31.8 106.438 33.7333 106.371 35.6C106.304 37.4667 106.238 39.0667 106.171 40.4C106.171 40.7333 106.171 41.4667 106.171 42.6C106.171 43.6667 106.171 44.9667 106.171 46.5C106.171 47.9667 106.171 49.5333 106.171 51.2C106.238 52.8667 106.271 54.4667 106.271 56C106.271 57.4667 106.271 58.7667 106.271 59.9C106.271 61.0333 106.271 61.7667 106.271 62.1C106.271 63.8333 106.038 65.5333 105.571 67.2C105.171 68.8 104.504 70.2333 103.571 71.5C102.704 72.7667 101.571 73.7667 100.171 74.5C98.7711 75.2333 97.0711 75.6 95.0711 75.6C94.5378 75.6 94.0044 75.5333 93.4711 75.4C92.9378 75.2667 92.7044 74.7 92.7711 73.7ZM122.652 52.7C122.652 49.0333 123.186 45.3667 124.252 41.7C125.386 38.0333 126.919 34.5333 128.852 31.2C130.786 27.8 133.086 24.6667 135.752 21.8C138.486 18.8667 141.452 16.3 144.652 14.1C147.852 11.8333 151.219 10.0333 154.752 8.7C158.352 7.36666 162.019 6.56666 165.752 6.3C165.752 6.5 166.052 6.6 166.652 6.6C167.319 6.53333 168.052 6.56666 168.852 6.7C169.719 6.83333 170.619 7.16666 171.552 7.7C172.552 8.23333 173.386 9.16666 174.052 10.5C174.786 11.8333 175.319 13.7 175.652 16.1C175.986 18.4333 175.986 21.4667 175.652 25.2C175.519 26.1333 175.219 27.0333 174.752 27.9C174.286 28.7 173.686 29.5 172.952 30.3C172.286 31.0333 171.552 31.7 170.752 32.3C169.952 32.8333 169.186 33.3 168.452 33.7C167.119 32.4333 166.119 30.8333 165.452 28.9C164.852 26.9667 164.186 25.1 163.452 23.3C162.719 21.4333 161.719 19.8667 160.452 18.6C159.186 17.2667 157.286 16.6 154.752 16.6C152.752 16.6 151.052 16.9333 149.652 17.6C148.252 18.2667 146.586 19.1333 144.652 20.2C142.586 21.3333 140.886 22.8 139.552 24.6C138.286 26.4 137.286 28.3667 136.552 30.5C135.886 32.5667 135.419 34.7667 135.152 37.1C134.886 39.3667 134.752 41.5333 134.752 43.6C134.752 46.5333 135.186 49.3667 136.052 52.1C136.986 54.7667 138.286 57.1333 139.952 59.2C141.686 61.2667 143.786 62.9333 146.252 64.2C148.719 65.4 151.552 66 154.752 66C157.886 66 160.786 65.5 163.452 64.5C166.186 63.5 169.052 62.5 172.052 61.5L175.552 60.6C176.619 60.6 176.886 61 176.352 61.8C175.819 62.5333 174.986 63.3667 173.852 64.3C172.786 65.2333 171.686 66.1 170.552 66.9C169.486 67.7 168.919 68.1333 168.852 68.2C164.852 70.6 160.752 72.7 156.552 74.5C152.352 76.3 147.852 77.2 143.052 77.2C139.719 77.2 136.786 76.4667 134.252 75C131.719 73.6 129.586 71.7333 127.852 69.4C126.119 67.0667 124.819 64.4333 123.952 61.5C123.086 58.5667 122.652 55.6333 122.652 52.7Z" fill="white"/>
</svg>
