<svg width="51" height="46" viewBox="0 0 51 46" fill="none" xmlns="http://www.w3.org/2000/svg">
<path d="M36.7841 0.318359C31.8928 0.318359 27.7811 3.89501 25.4348 6.27686C23.0885 3.89501 18.9767 0.318359 14.0854 0.318359C5.86957 0.318359 0 6.27686 0 15.0129C0 24.548 7.2376 30.7083 14.2841 36.6668C17.6087 39.2503 25.4348 46.0002 25.4348 46.0002C25.4348 46.0002 33.2609 39.2503 36.5854 36.465C43.632 30.5065 50.8696 24.3541 50.8696 14.8189C50.8696 6.27686 45 0.318359 36.7841 0.318359ZM22.1102 38.0555L25.6335 24.1524H18.7857L23.4783 10.2492H30.9146L26.6118 20.18H33.8494L22.1102 38.0555Z" fill="white"/>
</svg>
