<svg width="45" height="44" viewBox="0 0 45 44" fill="none" xmlns="http://www.w3.org/2000/svg">
<path d="M22.5 0.318359L2.22803 12.3188C0.853277 13.1342 0 14.6497 0 16.2668V39.1658C0 41.6851 2.01825 43.7339 4.5 43.7339H40.5C42.9818 43.7339 45 41.6851 45 39.1658V16.2668C45 14.6497 44.1446 13.1365 42.7676 12.3188L22.5 0.318359ZM22.5 5.96613C22.8918 5.96613 23.2828 6.07056 23.6338 6.27841L40.2583 16.1241L23.6909 26.5899C22.9642 27.049 22.0402 27.049 21.3135 26.5899L4.7417 16.1241L21.3662 6.27841C21.7161 6.07056 22.1082 5.96613 22.5 5.96613ZM22.5 9.47257C21.258 9.47257 20.25 10.4958 20.25 11.7567V14.0407H18C16.758 14.0407 15.75 15.064 15.75 16.3248C15.75 17.5857 16.758 18.6089 18 18.6089H20.25V20.893C20.25 22.1538 21.258 23.1771 22.5 23.1771C23.742 23.1771 24.75 22.1538 24.75 20.893V18.6089H27C28.242 18.6089 29.25 17.5857 29.25 16.3248C29.25 15.064 28.242 14.0407 27 14.0407H24.75V11.7567C24.75 10.4958 23.742 9.47257 22.5 9.47257Z" fill="white"/>
</svg>
